# xmcd CD database file
#
# Track frame offsets:
#	150
#	6721
#	30017
#	53915
#	79572
#	98574
#
# Disc length: 1479 seconds
#
# Revision: 0
# Processed by: cddbd v1.5.2PL0 Copyright (c) Steve Scherf et al.
# Submitted via: CDex 1.51
#
DISCID=3705c506
DTITLE=Tobias Hoffman Trio - Global Tourists
DYEAR=2006
DGENRE=Jazz
TTITLE0=Introductiom
TTITLE1=Serbian Dance
TTITLE2=Wild Wild East
TTITLE3=You were barefoot
TTITLE4=Lydia´s Dream
TTITLE5=I´m from California
EXTD=YEAR: 2006
EXTT0=
EXTT1=
EXTT2=
EXTT3=
EXTT4=
EXTT5=
PLAYORDER=
